<svg id="Capa_1" data-name="Capa 1" xmlns="http://www.w3.org/2000/svg" viewBox="0 0 19.69 15.69"><defs><style>.cls-1{fill:#bac1ce;}</style></defs><path class="cls-1" d="M19.25,0h-6A2.1,2.1,0,0,0,12,.53L4.53,8A.75.75,0,0,0,4.53,9L11,15.47a.75.75,0,0,0,1.06,0L19.47,8A2.1,2.1,0,0,0,20,6.75v-6A.76.76,0,0,0,19.25,0ZM15.5,6A1.5,1.5,0,1,1,17,4.5,1.5,1.5,0,0,1,15.5,6Z" transform="translate(-0.31)"/><path class="cls-1" d="M2,8.5,10.5,0H9.25A2.1,2.1,0,0,0,8,.53L.53,8A.75.75,0,0,0,.53,9L7,15.47a.75.75,0,0,0,1.06,0L8.5,15,2,8.5Z" transform="translate(-0.31)"/></svg>